<?xml version="1.0" encoding="UTF-8"?><svg id="Capa_1" xmlns="http://www.w3.org/2000/svg" viewBox="0 0 2830.77 516.65"><defs><style>.cls-1,.cls-2{fill:#fff;}.cls-2{fill-rule:evenodd;}</style></defs><g><path class="cls-1" d="M637.11,87.02v96.84c0,11.25,8.75,19.37,20.83,19.37s21.03-8.12,21.03-19.37V87.02h37.7v97.47c0,28.74-21.87,47.48-55.19,47.48h-7.29c-33.11,0-54.98-18.74-54.98-47.48V87.02h37.9Z"/><path class="cls-1" d="M846.61,154.08v75.81h-35.61v-67.27c0-8.75-6.04-15.62-13.95-15.62-8.33,0-15.62,7.5-15.62,16.87v66.02h-35.61V123.47h26.87l3.54,15.62c7.91-10.62,18.54-17.7,34.57-17.7,20.83,0,35.82,12.08,35.82,32.7Z"/><path class="cls-1" d="M910.96,106.6h-35.61v-26.66h35.61v26.66Zm0,16.87v106.42h-35.61V123.47h35.61Z"/><path class="cls-1" d="M985.92,189.7h1.25l19.58-66.23h34.57l-36.03,106.42h-40.82l-35.82-106.42h37.9l19.37,66.23Z"/><path class="cls-1" d="M1161.06,167.62v14.37h-71.23c0,16.66,5,27.07,18.95,27.07,11.87,0,18.54-6.87,18.54-18.95h33.53c0,26.45-21.45,41.86-49.98,41.86h-3.12c-31.24,0-55.19-18.95-55.19-52.28v-6.04c0-33.32,23.33-52.28,54.36-52.28h4.37c28.95,0,49.78,18.12,49.78,46.24Zm-71.23-2.92h35.61c0-12.7-5.62-20.41-17.49-20.41-10.83,0-17.49,8.12-18.12,20.41Z"/><path class="cls-1" d="M1274.76,153.88c0,3.54-.21,7.91-.83,11.66h-29.37v-4.79c0-6.66-3.33-13.33-11.87-13.33-7.91,0-12.08,6.04-12.08,15.41v67.06h-34.99V123.47h26.66l3.96,15.62c1.25-2.71,10.41-17.7,29.16-17.7,19.99,0,29.37,12.5,29.37,32.49Z"/><path class="cls-1" d="M1387.43,150.13c0,1.46,0,3.33-.42,4.79h-30.2v-1.25c0-6.87-8.33-9.58-16.87-9.58-7.91,0-17.49,1.67-17.49,7.71,0,17.29,67.27-1.67,67.27,43.53,0,27.7-23.74,36.65-48.11,36.65h-8.75c-24.37,0-45.4-11.66-45.4-32.49,0-1.67,0-2.5,.21-3.96h30.2c-.21,.62-.21,1.25-.21,1.67,0,9.16,11.04,11.87,20.2,11.87,6.66,0,19.79-1.25,19.79-8.54,0-18.33-66.85-.21-66.85-44.36,0-23.95,24.58-34.78,47.48-34.78h5.21c19.99,0,43.94,10.21,43.94,28.74Z"/><path class="cls-1" d="M1449.06,106.6h-35.61v-26.66h35.61v26.66Zm0,16.87v106.42h-35.61V123.47h35.61Z"/><path class="cls-1" d="M1542.98,135.13v-55.19h35.61V229.89h-28.32l-3.54-12.91c-6.25,8.12-15,15-28.32,15-24.78,0-44.78-17.49-44.78-54.57v-2.29c0-35.82,18.12-53.73,40.61-53.73,14.58,0,23.95,6.66,28.74,13.75Zm-33.32,30.41v23.33c0,12.7,7.29,20.2,16.66,20.2s16.66-7.5,16.66-20.2v-23.33c0-12.7-7.29-20.2-16.66-20.2s-16.66,7.5-16.66,20.2Z"/><path class="cls-1" d="M1707.29,154.71v46.65c0,5.62,3.12,7.71,6.25,7.71,2.71,0,6.25-1.25,7.91-2.08v20.41c-2.5,1.67-8.96,4.58-19.58,4.58-17.08,0-25.83-7.08-27.49-17.49-7.29,8.75-18.12,17.49-35.2,17.49s-36.86-3.96-36.86-31.45c0-30.2,27.28-35.82,70.19-35.82v-6.66c0-8.54-5.21-14.16-16.24-14.16-9.37,0-16.04,5.83-16.04,11.04v1.25h-34.36c-.21-1.04-.21-2.08-.21-3.33,0-17.91,18.95-31.45,48.32-31.45h5.62c32.07,0,47.69,13.95,47.69,33.32Zm-67.9,43.11c0,8.75,5.83,11.25,14.16,11.25,8.96,0,18.95-7.5,18.95-19.16v-7.29c-22.49,0-33.11,5-33.11,15.2Z"/><path class="cls-1" d="M1804.74,135.13v-55.19h35.61V229.89h-28.32l-3.54-12.91c-6.25,8.12-15,15-28.32,15-24.78,0-44.78-17.49-44.78-54.57v-2.29c0-35.82,18.12-53.73,40.61-53.73,14.58,0,23.95,6.66,28.74,13.75Zm-33.32,30.41v23.33c0,12.7,7.29,20.2,16.66,20.2s16.66-7.5,16.66-20.2v-23.33c0-12.7-7.29-20.2-16.66-20.2s-16.66,7.5-16.66,20.2Z"/><path class="cls-1" d="M1991.75,147l9.16,15.41,.83-.62V87.02h34.57V229.89h-32.07l-41.65-60.61-8.12-13.75-.83,.42v73.93h-34.57V87.02h31.66l41.03,59.98Z"/><path class="cls-1" d="M2166.47,154.71v46.65c0,5.62,3.12,7.71,6.25,7.71,2.71,0,6.25-1.25,7.91-2.08v20.41c-2.5,1.67-8.96,4.58-19.58,4.58-17.08,0-25.83-7.08-27.49-17.49-7.29,8.75-18.12,17.49-35.2,17.49s-36.86-3.96-36.86-31.45c0-30.2,27.28-35.82,70.19-35.82v-6.66c0-8.54-5.21-14.16-16.24-14.16-9.37,0-16.04,5.83-16.04,11.04v1.25h-34.36c-.21-1.04-.21-2.08-.21-3.33,0-17.91,18.95-31.45,48.32-31.45h5.62c32.07,0,47.69,13.95,47.69,33.32Zm-67.9,43.11c0,8.75,5.83,11.25,14.16,11.25,8.96,0,18.95-7.5,18.95-19.16v-7.29c-22.49,0-33.11,5-33.11,15.2Z"/><path class="cls-1" d="M2298.29,166.16h-32.49c0-13.33-5.21-21.87-16.87-21.87-10.62,0-17.29,9.16-17.29,20.62v24.37c0,11.04,5.83,19.79,17.49,19.79,12.29,0,18.33-6.25,18.33-21.87h30.82c0,29.99-20.83,44.78-47.69,44.78h-4.58c-29.57,0-51.65-21.03-51.65-51.65v-7.29c0-30.62,22.7-51.65,51.44-51.65h4.58c27.91,0,47.9,17.7,47.9,44.78Z"/><path class="cls-1" d="M2358.05,106.6h-35.61v-26.66h35.61v26.66Zm0,16.87v106.42h-35.61V123.47h35.61Z"/><path class="cls-1" d="M2382.41,179.28v-5.21c0-32.28,23.12-52.69,53.52-52.69h5c30.41,0,53.52,20.41,53.52,52.69v5.21c0,32.49-23.12,52.69-53.52,52.69h-5c-30.41,0-53.52-20.41-53.52-52.69Zm74.77,9.16v-23.53c0-13.12-8.12-20.62-18.74-20.62s-18.74,7.5-18.74,20.62v23.53c0,13.12,8.12,20.62,18.74,20.62s18.74-7.5,18.74-20.62Z"/><path class="cls-1" d="M2619.61,154.08v75.81h-35.61v-67.27c0-8.75-6.04-15.62-13.95-15.62-8.33,0-15.62,7.5-15.62,16.87v66.02h-35.61V123.47h26.87l3.54,15.62c7.91-10.62,18.54-17.7,34.57-17.7,20.83,0,35.82,12.08,35.82,32.7Z"/><path class="cls-1" d="M2747.88,154.71v46.65c0,5.62,3.12,7.71,6.25,7.71,2.71,0,6.25-1.25,7.91-2.08v20.41c-2.5,1.67-8.96,4.58-19.58,4.58-17.08,0-25.83-7.08-27.49-17.49-7.29,8.75-18.12,17.49-35.2,17.49s-36.86-3.96-36.86-31.45c0-30.2,27.28-35.82,70.19-35.82v-6.66c0-8.54-5.21-14.16-16.24-14.16-9.37,0-16.04,5.83-16.04,11.04v1.25h-34.36c-.21-1.04-.21-2.08-.21-3.33,0-17.91,18.95-31.45,48.32-31.45h5.62c32.07,0,47.69,13.95,47.69,33.32Zm-67.9,43.11c0,8.75,5.83,11.25,14.16,11.25,8.96,0,18.95-7.5,18.95-19.16v-7.29c-22.49,0-33.11,5-33.11,15.2Z"/><path class="cls-1" d="M2816.18,79.94V229.89h-35.62V79.94h35.62Z"/><path class="cls-1" d="M663.98,360.82v-55.19h35.61v149.95h-28.32l-3.54-12.91c-6.25,8.12-15,15-28.32,15-24.78,0-44.78-17.49-44.78-54.57v-2.29c0-35.82,18.12-53.73,40.61-53.73,14.58,0,23.95,6.66,28.74,13.75Zm-33.32,30.41v23.33c0,12.7,7.29,20.2,16.66,20.2s16.66-7.5,16.66-20.2v-23.33c0-12.7-7.29-20.2-16.66-20.2s-16.66,7.5-16.66,20.2Z"/><path class="cls-1" d="M829.95,393.31v14.37h-71.23c0,16.66,5,27.07,18.95,27.07,11.87,0,18.54-6.87,18.54-18.95h33.53c0,26.45-21.45,41.86-49.98,41.86h-3.12c-31.24,0-55.19-18.95-55.19-52.28v-6.04c0-33.32,23.33-52.28,54.36-52.28h4.37c28.95,0,49.78,18.12,49.78,46.24Zm-71.23-2.92h35.61c0-12.7-5.62-20.41-17.49-20.41-10.83,0-17.49,8.12-18.12,20.41Z"/><path class="cls-1" d="M1019.67,363.74h-35.2c0-16.45-10.41-24.16-24.99-24.16s-25.41,10.21-25.41,27.07v34.78c0,16.87,11.04,27.28,25.62,27.28s24.99-7.29,24.99-22.91v-3.33h-28.53v-25.62h63.52v49.57c0,14.79,.83,23.95,1.46,29.16h-20.41l-5.41-15.62c-8.96,10.62-24.78,17.7-40.61,17.7h-1.46c-34.36,0-59.36-26.03-59.36-62.9v-21.24c0-36.86,26.66-62.9,64.35-62.9h4.37c31.86,0,57.07,21.45,57.07,53.11Z"/><path class="cls-1" d="M1149.4,393.31v14.37h-71.23c0,16.66,5,27.07,18.95,27.07,11.87,0,18.54-6.87,18.54-18.95h33.53c0,26.45-21.45,41.86-49.98,41.86h-3.12c-31.24,0-55.19-18.95-55.19-52.28v-6.04c0-33.32,23.33-52.28,54.36-52.28h4.37c28.95,0,49.78,18.12,49.78,46.24Zm-71.23-2.92h35.61c0-12.7-5.62-20.41-17.49-20.41-10.83,0-17.49,8.12-18.12,20.41Z"/><path class="cls-1" d="M1272.27,379.78v75.81h-35.61v-67.27c0-8.75-6.04-15.62-13.95-15.62-8.33,0-15.62,7.5-15.62,16.87v66.02h-35.61v-106.42h26.87l3.54,15.62c7.91-10.62,18.54-17.7,34.57-17.7,20.83,0,35.82,12.08,35.82,32.7Z"/><path class="cls-1" d="M1402.21,393.31v14.37h-71.23c0,16.66,5,27.07,18.95,27.07,11.87,0,18.54-6.87,18.54-18.95h33.53c0,26.45-21.45,41.86-49.98,41.86h-3.12c-31.24,0-55.19-18.95-55.19-52.28v-6.04c0-33.32,23.33-52.28,54.36-52.28h4.37c28.95,0,49.78,18.12,49.78,46.24Zm-71.23-2.92h35.61c0-12.7-5.62-20.41-17.49-20.41-10.83,0-17.49,8.12-18.12,20.41Z"/><path class="cls-1" d="M1513.41,379.57c0,3.54-.21,7.91-.83,11.66h-29.37v-4.79c0-6.66-3.33-13.33-11.87-13.33-7.91,0-12.08,6.04-12.08,15.41v67.06h-34.99v-106.42h26.66l3.96,15.62c1.25-2.71,10.41-17.7,29.16-17.7,19.99,0,29.37,12.5,29.37,32.49Z"/><path class="cls-1" d="M1629.82,380.4v46.65c0,5.62,3.12,7.71,6.25,7.71,2.71,0,6.25-1.25,7.91-2.08v20.41c-2.5,1.67-8.96,4.58-19.58,4.58-17.08,0-25.83-7.08-27.49-17.49-7.29,8.75-18.12,17.49-35.2,17.49s-36.86-3.96-36.86-31.45c0-30.2,27.28-35.82,70.19-35.82v-6.66c0-8.54-5.21-14.16-16.24-14.16-9.37,0-16.04,5.83-16.04,11.04v1.25h-34.36c-.21-1.04-.21-2.08-.21-3.33,0-17.91,18.95-31.45,48.32-31.45h5.62c32.07,0,47.69,13.95,47.69,33.32Zm-67.9,43.11c0,8.75,5.83,11.25,14.16,11.25,8.96,0,18.95-7.5,18.95-19.16v-7.29c-22.49,0-33.11,5-33.11,15.2Z"/><path class="cls-1" d="M1695.62,305.63v149.95h-35.61v-149.95h35.61Z"/><path class="cls-1" d="M1879.71,353.33v2.5h-34.78v-1.25c0-8.96-6.87-15.41-20.62-15.41s-20.83,4.58-20.83,11.04c0,24.37,79.14,6.66,79.14,59.15,0,34.57-24.78,48.32-61.02,48.32-31.24,0-59.36-13.33-59.36-44.99,0-1.67,0-2.71,.21-4.79h35.2c-.21,1.46-.21,1.87-.21,2.92,0,9.79,6.87,17.49,22.91,17.49,19.16,0,23.74-6.46,23.74-12.7,0-24.16-78.52-5.83-78.52-61.23,0-29.37,26.45-43.74,58.11-43.74s56.02,13.12,56.02,42.69Z"/><path class="cls-1" d="M2004.03,380.4v46.65c0,5.62,3.12,7.71,6.25,7.71,2.71,0,6.25-1.25,7.91-2.08v20.41c-2.5,1.67-8.96,4.58-19.58,4.58-17.08,0-25.83-7.08-27.49-17.49-7.29,8.75-18.12,17.49-35.2,17.49s-36.86-3.96-36.86-31.45c0-30.2,27.28-35.82,70.19-35.82v-6.66c0-8.54-5.21-14.16-16.24-14.16-9.37,0-16.04,5.83-16.04,11.04v1.25h-34.36c-.21-1.04-.21-2.08-.21-3.33,0-17.91,18.95-31.45,48.32-31.45h5.62c32.07,0,47.69,13.95,47.69,33.32Zm-67.9,43.11c0,8.75,5.83,11.25,14.16,11.25,8.96,0,18.95-7.5,18.95-19.16v-7.29c-22.49,0-33.11,5-33.11,15.2Z"/><path class="cls-1" d="M2123.36,379.57c0,3.54-.21,7.91-.83,11.66h-29.37v-4.79c0-6.66-3.33-13.33-11.87-13.33-7.91,0-12.08,6.04-12.08,15.41v67.06h-34.99v-106.42h26.66l3.96,15.62c1.25-2.71,10.41-17.7,29.16-17.7,19.99,0,29.37,12.5,29.37,32.49Z"/><path class="cls-1" d="M2232.69,363.74c7.5-12.08,17.91-16.66,30.82-16.66,19.99,0,34.36,12.5,34.36,32.7v75.81h-35.2v-67.9c0-9.37-5-15-12.29-15-7.71,0-13.75,6.66-13.75,16.24v66.65h-35.2v-67.9c0-9.37-5-15-12.29-15-7.71,0-13.75,6.66-13.75,16.24v66.65h-35.2v-106.42h26.87l3.75,15.62c7.91-11.45,17.29-17.7,31.24-17.7s24.58,5.21,30.62,16.66Z"/><path class="cls-1" d="M2359.5,332.29h-35.61v-26.66h35.61v26.66Zm0,16.87v106.42h-35.61v-106.42h35.61Z"/><path class="cls-1" d="M2489.87,393.31v14.37h-71.23c0,16.66,5,27.07,18.95,27.07,11.87,0,18.54-6.87,18.54-18.95h33.53c0,26.45-21.45,41.86-49.98,41.86h-3.12c-31.24,0-55.19-18.95-55.19-52.28v-6.04c0-33.32,23.33-52.28,54.36-52.28h4.37c28.95,0,49.78,18.12,49.78,46.24Zm-71.23-2.92h35.61c0-12.7-5.62-20.41-17.49-20.41-10.83,0-17.49,8.12-18.12,20.41Z"/><path class="cls-1" d="M2612.73,379.78v75.81h-35.61v-67.27c0-8.75-6.04-15.62-13.95-15.62-8.33,0-15.62,7.5-15.62,16.87v66.02h-35.61v-106.42h26.87l3.54,15.62c7.91-10.62,18.54-17.7,34.57-17.7,20.83,0,35.82,12.08,35.82,32.7Z"/><path class="cls-1" d="M2678.74,315.21v33.95h24.99v24.99h-24.99v46.24c0,12.29,6.04,14.37,11.87,14.37,3.12,0,9.58-1.25,12.91-2.71v21.45c-6.04,2.5-18.33,4.17-25.2,4.17-21.45,0-35.2-7.29-35.2-29.57v-53.94h-11.66v-24.99h13.12l12.5-33.95h21.66Z"/><path class="cls-1" d="M2718.72,404.98v-5.21c0-32.28,23.12-52.69,53.52-52.69h5c30.41,0,53.52,20.41,53.52,52.69v5.21c0,32.49-23.12,52.69-53.52,52.69h-5c-30.41,0-53.52-20.41-53.52-52.69Zm74.77,9.16v-23.53c0-13.12-8.12-20.62-18.74-20.62s-18.74,7.5-18.74,20.62v23.53c0,13.12,8.12,20.62,18.74,20.62s18.74-7.5,18.74-20.62Z"/></g><path class="cls-2" d="M143.04,379.4L216.82,2.63h0C92.99,22.38,0,128.88,0,258.23c0,135.7,104.19,246.98,236.9,258.42L313.44,123.83c3.68-17.3,20.62-28.32,37.9-24.64,17.25,3.59,28.29,20.59,24.61,37.91l-73.95,377.06c123.06-20.36,216.8-127.11,216.8-255.93S415.66,12.3,283.83,0l-78.29,392.72c-3.66,17.24-20.63,28.32-37.9,24.63-17.24-3.71-28.25-20.69-24.6-37.95Z"/></svg>